<svg xmlns="http://www.w3.org/2000/svg" viewBox="0 0 78 59" fill="none">
  <title>AnonyMoose</title>
  <g fill="#ffffff">
    <path d="M35.6 25.8c-4.2-1.1-7.8-3.1-10.9-5.7-2.8-2.4-5.4-5.4-7.1-8.8-.7-1.4-1.2-2.9-1.5-4.5l3.8-.8c.3 1.3.7 2.5 1.3 3.6 1.5 2.8 3.6 5.4 6 7.4 2.7 2.3 5.9 3.9 9.4 4.9l-1 3.9Z"/>
    <path d="M42.4 25.8c4.2-1.1 7.8-3.1 10.9-5.7 2.8-2.4 5.4-5.4 7.1-8.8.7-1.4 1.2-2.9 1.5-4.5l-3.8-.8c-.3 1.3-.7 2.5-1.3 3.6-1.5 2.8-3.6 5.4-6 7.4-2.7 2.3-5.9 3.9-9.4 4.9l1 3.9Z"/>
    <path d="M18.4 13.6c-3.3-.5-6-1.9-7.9-4.3-1.6-2-2.5-4.4-2.6-7l4-.2c.1 1.7.7 3.3 1.7 4.6 1.3 1.6 3.1 2.6 5.4 2.9l-.6 4Z"/>
    <path d="M59.6 13.6c3.3-.5 6-1.9 7.9-4.3 1.6-2 2.5-4.4 2.6-7l-4-.2c-.1 1.7-.7 3.3-1.7 4.6-1.3 1.6-3.1 2.6-5.4 2.9l.6 4Z"/>
    <path d="M14.1 8.9c-2.7.2-5.1-.4-7.1-1.9C5.2 5.7 4 3.8 3.5 1.6L7.4.7c.3 1.3 1 2.4 2 3.1 1.2.9 2.7 1.3 4.4 1.1l.3 4Z"/>
    <path d="M63.9 8.9c2.7.2 5.1-.4 7.1-1.9 1.8-1.3 3-3.2 3.5-5.4l-3.9-.9c-.3 1.3-1 2.4-2 3.1-1.2.9-2.7 1.3-4.4 1.1l-.3 4Z"/>
    <path d="M24.7 20.3c-3.4.7-6.7.5-9.7-.7-2.8-1.1-5.1-3-6.8-5.5l3.3-2.2c1.2 1.8 2.9 3.1 4.9 3.9 2.3.9 4.8 1.1 7.5.5l.8 4Z"/>
    <path d="M53.3 20.3c3.4.7 6.7.5 9.7-.7 2.8-1.1 5.1-3 6.8-5.5l-3.3-2.2c-1.2 1.8-2.9 3.1-4.9 3.9-2.3.9-4.8 1.1-7.5.5l-.8 4Z"/>
    <path d="M29.2 22.1 24 18.2l-2.4 3.2 7.8 5.8-.2-5.1ZM48.8 22.1l5.2-3.9 2.4 3.2-7.8 5.8.2-5.1Z"/>
    <path d="M27.2 26.5c3.5-1.3 7.5-2 11.8-2s8.3.7 11.8 2l-3.2 5.6H30.4l-3.2-5.6Z"/>
    <path d="M28.8 33.6h20.4l-1.6 18.2c-.2 2.8-2.6 5-5.4 5h-6.4c-2.8 0-5.2-2.2-5.4-5l-1.6-18.2Z"/>
    <path d="M31.2 31h15.6v5.8H31.2z"/>
    <circle cx="35" cy="43" r="1.7"/><circle cx="43" cy="43" r="1.7"/>
    <path d="M35.2 50.1c2.4 1.6 5.2 1.6 7.6 0l1.5 2.1c-3.3 2.3-7.3 2.3-10.6 0l1.5-2.1Z"/>
  </g>
</svg>
